<svg xmlns="http://www.w3.org/2000/svg" width="64" height="63.93" viewBox="0 0 64 63.93">
  <ellipse cx="32" cy="31.97" rx="32" ry="31.97" style="fill: #5a46cf"/>
  <path d="M15.07,57c-4.11-1.9-4.44-4.28-4-4.94s.76-1.47,1.19-2.18a1.18,1.18,0,0,1,1-.56c.2,0,.39,0,.58,0h.11a1.5,1.5,0,0,0,.22,0c.14,0,.27,0,.41,0l1.84,0a10.65,10.65,0,0,0,3.77-.8,7.83,7.83,0,0,0,2.9-2.05,9.21,9.21,0,0,0,1.3-1.95,15.27,15.27,0,0,0,1.2-3.27c.14-.53.34-1,.5-1.56s.36-1.22.55-1.83c.14-.45.31-.91.46-1.36.06-.18.1-.37.15-.55l1.08-3.45c.33-1,.65-2.09,1-3.14.27-.9.55-1.8.81-2.7a28.59,28.59,0,0,1,1.5-4.28,15.85,15.85,0,0,1,1.55-2.59,13.49,13.49,0,0,1,2.24-2.35A14.29,14.29,0,0,1,39,15.22,17.79,17.79,0,0,1,43.47,14c1.11-.15,2.22-.27,3.33-.38.5-.05,1-.06,1.5-.08l1.81,0h.15c.81,0,1.57.11,2.38.15h0l1.29.16h0c.8.17,1.59.32,2.38.51a1.47,1.47,0,0,1,1.29,1.12.18.18,0,0,1,0,.14c-.32.63-.68,1.24-1,1.86-.25.44-.51.88-.77,1.32l-.54.95a1.53,1.53,0,0,1-1.88.64L51.72,20c-.44-.08-.88-.13-1.31-.18-.23,0-.45,0-.68,0h0a.48.48,0,0,0-.12,0c-.76,0-1.5.07-2.25.1a2.37,2.37,0,0,0-.53,0h0a6.81,6.81,0,0,0-3.91,1.66,7.48,7.48,0,0,0-2,2.92,1.08,1.08,0,0,0,.72,1.55h0a2.14,2.14,0,0,0,.48.13h8.78a1.27,1.27,0,0,1,.93.68,1,1,0,0,1,.07.62c-.32,1-.68,2-1,3-.08.22-.16.44-.26.66a2.65,2.65,0,0,1-2.28,1.69h0c-.58,0-1.16.11-1.74.11H39.28a1.91,1.91,0,0,0-.51.13h0a1.31,1.31,0,0,0-.87,1c-.18.73-.45,1.43-.67,2.14-.27.88-.53,1.76-.8,2.64-.17.54-.36,1.07-.53,1.61-.27.85-.51,1.71-.79,2.56a27,27,0,0,1-1.5,4.24A18.62,18.62,0,0,1,32.3,49.4a19.42,19.42,0,0,1-1.47,1.79,12.62,12.62,0,0,1-1.2,1.11,15.77,15.77,0,0,1-3.54,2.29,17.31,17.31,0,0,1-2.61,1c-1.15.35-7.26,1.94-8.37,1.37" transform="translate(-0.34 -0.13)" style="fill: #fff"/>
  <path d="M25.67,18.67h0a1.36,1.36,0,0,1,1,.81.89.89,0,0,1,0,.58c-.17.62-.38,1.23-.58,1.84s-.43,1.28-.63,1.92-.32,1-.48,1.51c-.23.76-.46,1.53-.7,2.29s-.47,1.5-.7,2.25L23,31.92l-.84,2.69c-.28.85-.56,1.71-.83,2.57-.16.51-.31,1-.47,1.54-.34,1-.67,2.06-1,3.09a8.33,8.33,0,0,1-.51,1.28,3.61,3.61,0,0,1-1.76,1.69,7.23,7.23,0,0,1-2.48.52H10.28l-.27,0A1,1,0,0,1,9,43.9c.16-.58.38-1.14.56-1.71.31-1,.61-2,.92-2.95s.54-1.68.8-2.52c.21-.66.4-1.32.61-2,.14-.45.3-.9.45-1.35s.37-1.12.55-1.68c.31-1,.63-1.94.93-2.91.19-.6.35-1.21.54-1.81.28-.88.58-1.76.87-2.64l.51-1.58c.37-1.15.72-2.31,1.12-3.45a1.07,1.07,0,0,1,1-.62,3.16,3.16,0,0,1,.32,0Z" transform="translate(-0.34 -0.13)" style="fill: #fff"/>
  <path d="M22.93,15.35l-.29,0c-.51-.08-1-.13-1.53-.26a5.37,5.37,0,0,1-1.85-.89,2.5,2.5,0,0,1-1.1-1.76l-.09-.72a2.46,2.46,0,0,1,.05-.81,2.33,2.33,0,0,0,.07-.25A4.54,4.54,0,0,1,20,8.14a7.92,7.92,0,0,1,3.48-1.47c.26,0,.53-.06.8-.09a1.83,1.83,0,0,1,.33,0l1.52.05.22,0a7.49,7.49,0,0,1,2.07.62,3.55,3.55,0,0,1,1.51,1.13,2.83,2.83,0,0,1,.55,1.4,3.69,3.69,0,0,1-.13,1.69,4.59,4.59,0,0,1-1.13,1.78,7.63,7.63,0,0,1-4.82,2.12,1.61,1.61,0,0,1-.22,0Z" transform="translate(-0.34 -0.13)" style="fill: #fff"/>
  <path d="M25.67,18.67H18.23a3.16,3.16,0,0,0-.32,0,.89.89,0,0,1,.28-.07h7.13A2.11,2.11,0,0,1,25.67,18.67Z" transform="translate(-0.34 -0.13)"/>
  <path d="M26.22,6.61l-1.63-.05a1.83,1.83,0,0,0-.33,0,.28.28,0,0,1,.09,0Z" transform="translate(-0.34 -0.13)"/>
  <path d="M22.78,15.35l1.49,0Z" transform="translate(-0.34 -0.13)"/>
  <path d="M53.9,14" transform="translate(-0.34 -0.13)"/>
  <path d="M52.6,13.79" transform="translate(-0.34 -0.13)"/>
</svg>
