<svg xmlns="http://www.w3.org/2000/svg" width="1923.09" height="1921" viewBox="0 0 1923.09 1921">
  <ellipse cx="961.54" cy="960.5" rx="961.04" ry="960" style="fill: #5a46cf;stroke: #1d1d1b;stroke-miterlimit: 10"/>
  <g>
    <path d="M443.26,1703.43C319.61,1646.57,309.83,1575,321.88,1555.2c12.88-21.16,22.88-44.06,35.57-65.35,6.48-10.85,17.88-16.51,31.1-17,5.91-.23,11.62.91,17.53.62a11.26,11.26,0,0,1,3.11.31c2.24.64,4.26.33,6.6.61a100.37,100.37,0,0,0,12.48.85c18.38-.12,36.76-.52,55.14-.81a319.8,319.8,0,0,0,113.14-24.05,235.49,235.49,0,0,0,87.08-61.64c15.76-17.57,28.43-37.27,39.26-58.32,16.12-31.33,27.23-64.33,36-98.35,4.07-15.82,10.23-31.08,15-46.72,5.64-18.27,10.64-36.73,16.33-55,4.29-13.75,9.32-27.28,13.85-41,1.79-5.43,3-11.06,4.71-16.53q16.11-51.74,32.3-103.44,14.71-47.25,29.32-94.53c8.28-27,16.61-53.9,24.47-81,12.67-43.63,25.56-87.21,44.89-128.43a463.94,463.94,0,0,1,46.76-77.92c19.49-26.47,42.31-49.71,67.22-70.62,32.91-27.62,68.64-51.13,108.71-67.78,43.13-17.91,87.37-31.56,133.62-37.92,33.22-4.58,66.6-8.06,100-11.46,15-1.53,30-1.68,45-2.46l54.29-.84,1.66,0h.1a21.87,21.87,0,0,1,2.92.27c24.26,1.21,47.15,3.52,71.42,4.65l-.38-.12,38.79,5,.45.08c23.79,5.11,47.65,9.84,71.31,15.49,16.21,3.87,32.24,9.36,38.74,33.57a5.79,5.79,0,0,1-.41,4.09c-9.66,19.08-20.64,37.47-31.21,56.07-7.51,13.22-15.19,26.34-22.89,39.45-5.56,9.46-10.77,19.13-16.47,28.5-14.46,23.76-34.65,24.19-56.29,19.47q-24.59-5.37-49.39-9.73c-13-2.27-26.18-4-39.34-5.45-6.71-.73-13.53-.37-20.31-.45a12.1,12.1,0,0,1-1.47-.21,20.6,20.6,0,0,0-3.72.23c-22.67.48-44.9,1.85-67.56,2.74-5.1.2-10.85.12-15.91,1.3a6,6,0,0,1-.72.12c-44.06,5-83.84,19.45-117.45,49.9-27,24.49-45.87,54-58.71,87.54-8.63,22.52-.12,38.42,21.59,46.64l.4.14c4.79,1.4,9.57,3.93,14.36,3.94q131.16.39,262.3.22a5.88,5.88,0,0,1,1.45.18c12,3.12,22.92,8.23,27.86,20.39,2.3,5.67,3.92,13.2,2.14,18.69-9.69,29.87-20.51,59.38-31,89-2.37,6.68-4.83,13.35-7.59,19.88-12.82,30.41-36,46.92-68.49,50.92l-.37,0c-17.4,1.11-34.79,3.08-52.2,3.16-72.9.36-145.82.07-218.72.33-5.1,0-10.18,2.47-15.27,3.85a4.48,4.48,0,0,0-.52.16c-14.19,5.33-22.59,14.69-26.36,30.24-5.27,21.74-13.34,42.8-20,64.23-8.18,26.39-16,52.9-24.21,79.28-5,16.18-10.68,32.17-15.76,48.34-8,25.59-15.44,51.38-23.79,76.87-14,42.86-23.93,87.3-45.09,127.49a556.2,556.2,0,0,1-38.74,62.58c-13.4,18.87-28.57,36.61-44.12,53.79-10.93,12.07-23.52,22.71-35.85,33.43-32.19,28-68.28,50.32-106.44,68.82a538.05,538.05,0,0,1-78.32,31c-34.71,10.52-218.13,58.39-251.53,41.17" transform="translate(-0.35 4.68)" style="fill: #fff"/>
    <path d="M761.42,552.61l.23,0c14.52,3,25.81,10.79,31.49,24.46,2.05,4.92,1.31,11.86-.25,17.28-5.34,18.6-11.54,37-17.55,55.38-6.26,19.21-12.78,38.33-19,57.55-4.88,15.06-9.54,30.2-14.2,45.33-7.08,23-14,46-21.12,69q-10.44,33.74-21.1,67.38c-6.51,20.6-13.17,41.17-19.7,61.77-8.5,26.84-16.91,53.71-25.44,80.55-8.2,25.79-16.56,51.52-24.74,77.32-4.87,15.36-9.36,30.84-14.3,46.18-10,31-19.93,61.94-30.31,92.78-4.41,13.11-8.54,26.6-15.14,38.64-12.17,22.21-28.81,40.57-53,50.62-23.77,9.89-48.68,14.36-74.27,15.6q-71.82,0-143.62,0a73.65,73.65,0,0,1-8.07-.86c-23.24-2.15-35.71-18.89-29.49-41.19,4.83-17.34,11.45-34.18,16.87-51.37,9.3-29.47,18.16-59.08,27.42-88.57,7.91-25.22,16.23-50.32,24.16-75.54,6.24-19.83,12-39.8,18.28-59.62,4.28-13.53,9.1-26.88,13.56-40.36q8.38-25.3,16.56-50.69c9.37-29.1,18.81-58.17,27.94-87.34,5.62-18,10.39-36.25,16.12-54.2,8.46-26.53,17.47-52.87,26.17-79.32q7.81-23.73,15.4-47.54c11.12-34.62,21.52-69.49,33.65-103.74,4.54-12.8,17.15-17.44,30.4-18.61,3.25-.3,6.5-.85,9.75-.85Q649.77,552.56,761.42,552.61Z" transform="translate(-0.35 4.68)" style="fill: #fff"/>
    <path d="M679.11,453a66.9,66.9,0,0,1-8.48-.72c-15.44-2.27-31.08-3.76-46.1-7.64A162.15,162.15,0,0,1,569,417.8c-17.84-13.14-30.31-30-33-52.75l-2.67-21.69a64.87,64.87,0,0,1,1.59-24.23c.66-2.58,1.33-5.15,2-7.73,8.18-32,28.23-55.29,53.79-74.86,31-23.75,66.26-37.31,104.36-44.12,8-1.42,16.16-1.81,24.26-2.67,3.24-.3,6.49-.93,9.72-.84,15.23.41,30.46,1,45.69,1.52a59.84,59.84,0,0,1,6.55.55c21.65,3.12,42.32,9.66,62.27,18.62,17.68,8,34.12,18.41,45.43,34.06a90.45,90.45,0,0,1,16.56,42c2.28,17.62,1.41,34.6-4.07,50.77a134.87,134.87,0,0,1-34,53.37c-40.28,39.25-89.23,58.93-144.55,63.71a63,63,0,0,1-6.59.2Z" transform="translate(-0.35 4.68)" style="fill: #fff"/>
    <path d="M761.54,552.61q-111.72,0-223.43,0c-3.25,0-6.5.55-9.75.85,2.79-.73,5.57-2.1,8.37-2.11q107.13-.18,214.28,0C754.52,551.34,758,552.17,761.54,552.61Z" transform="translate(-0.35 4.68)"/>
    <path d="M778,190.54c-16.33-.56-32.65-1.19-49-1.63-3.23-.09-6.48.54-9.72.84.9-.6,1.82-1.74,2.69-1.71C740.66,188.79,759.33,189.68,778,190.54Z" transform="translate(-0.35 4.68)"/>
    <path d="M674.84,452.94l44.75.85Z" transform="translate(-0.35 4.68)"/>
    <path d="M1609.29,411.07" transform="translate(-0.35 4.68)"/>
    <path d="M1570.27,406.05" transform="translate(-0.35 4.68)"/>
  </g>
</svg>
