<?xml version="1.0" standalone="no"?>
<!DOCTYPE svg PUBLIC "-//W3C//DTD SVG 20010904//EN"
 "http://www.w3.org/TR/2001/REC-SVG-20010904/DTD/svg10.dtd">
<svg version="1.0" xmlns="http://www.w3.org/2000/svg"
 width="700.000000pt" height="700.000000pt" viewBox="0 0 700.000000 700.000000"
 preserveAspectRatio="xMidYMid meet">
<metadata>
Created by potrace 1.14, written by Peter Selinger 2001-2017
</metadata>
<g transform="translate(0.000000,700.000000) scale(0.100000,-0.100000)"
fill="#000000" stroke="none">
<path d="M3295 6994 c-22 -2 -89 -9 -150 -14 -873 -83 -1704 -515 -2290 -1190
-460 -531 -744 -1175 -831 -1890 -25 -200 -25 -600 0 -800 85 -701 356 -1328
801 -1855 119 -141 349 -365 490 -479 513 -411 1129 -666 1810 -747 143 -18
595 -18 740 -1 696 81 1291 327 1828 755 132 105 364 332 482 472 336 398 579
867 710 1370 213 816 124 1685 -249 2435 -171 343 -367 619 -636 893 -569 583
-1286 936 -2095 1033 -124 14 -525 27 -610 18z m-380 -719 c249 -64 371 -179
383 -361 9 -142 -46 -267 -164 -373 -115 -103 -267 -175 -428 -202 -86 -14
-306 -6 -401 15 -156 35 -291 127 -336 229 -19 43 -23 70 -23 157 -1 101 0
108 35 180 47 98 101 156 207 228 90 60 193 104 297 127 87 19 355 19 430 0z
m2890 -769 c150 -22 362 -72 391 -90 30 -20 64 -73 64 -100 0 -22 -52 -121
-177 -339 -102 -177 -129 -202 -212 -202 -31 0 -108 14 -171 30 -115 30 -115
30 -385 28 -239 -1 -279 -4 -349 -22 -219 -58 -387 -196 -491 -405 -68 -133
-60 -197 29 -237 38 -17 74 -19 539 -19 541 0 531 1 576 -56 12 -15 21 -41 21
-58 0 -46 -126 -415 -163 -477 -34 -57 -100 -110 -165 -130 -25 -8 -205 -14
-562 -18 -462 -5 -529 -8 -555 -23 -49 -27 -74 -61 -94 -129 -10 -35 -50 -165
-89 -289 -38 -124 -102 -328 -141 -455 -40 -126 -90 -287 -112 -357 -48 -154
-113 -313 -167 -404 -251 -430 -637 -715 -1152 -853 -305 -81 -582 -133 -720
-134 -91 -1 -98 1 -170 37 -110 57 -187 111 -261 186 -79 80 -121 160 -127
239 -4 54 -1 62 73 199 47 86 89 150 105 162 25 18 45 20 202 20 319 0 502 31
673 114 186 91 320 228 420 431 53 109 70 154 160 450 49 159 76 245 258 825
64 201 150 479 191 619 123 409 180 546 308 738 86 130 260 307 393 402 112
79 318 180 450 220 165 50 250 65 635 111 117 14 657 4 775 -14z m-2988 -556
c42 -25 67 -65 66 -104 -1 -17 -35 -134 -76 -261 -91 -278 -232 -733 -293
-945 -49 -169 -224 -728 -335 -1069 -39 -118 -84 -241 -100 -274 -58 -113
-149 -181 -299 -222 -54 -15 -120 -19 -395 -22 -355 -5 -389 -2 -424 44 -31
39 -26 77 33 261 30 92 98 307 151 477 53 171 132 418 175 550 43 132 116 362
163 510 119 382 317 997 329 1018 5 10 24 27 41 37 30 19 54 20 482 20 428 0
452 -1 482 -20z"/>
</g>
</svg>
