<svg xmlns="http://www.w3.org/2000/svg" width="1363.93" height="398.16" viewBox="0 0 1363.93 398.16">
  <circle cx="199.08" cy="199.08" r="199.08" style="fill: #5a4fcf"/>
  <g>
    <path d="M120.53,301.81H74.8l38.62-162.54h46ZM142.78,119.5a28.34,28.34,0,0,1-17.31-5.72q-7.73-5.72-7.72-17.46a28.89,28.89,0,0,1,2.62-12.2,32.25,32.25,0,0,1,7-9.89,33.33,33.33,0,0,1,10-6.64,30.38,30.38,0,0,1,12.2-2.48,28.4,28.4,0,0,1,17.31,5.72q7.73,5.73,7.72,17.46a29,29,0,0,1-2.62,12.2,32.3,32.3,0,0,1-7,9.89A33.48,33.48,0,0,1,155,117,30.37,30.37,0,0,1,142.78,119.5Z" transform="translate(-1.92 -1.92)" style="fill: #fff"/>
    <path d="M288.62,62A89.33,89.33,0,0,1,312.88,65a108.33,108.33,0,0,1,15.6,5.41L313,106.52a49.61,49.61,0,0,0-12.82-4.17A71.53,71.53,0,0,0,286.77,101q-17,0-25.19,8.65a46.31,46.31,0,0,0-11.27,21.63l-1.86,8h54.39L293.57,177H239.49l-18.85,78.8q-10.5,44.19-22.86,68.75t-27.2,35.69l-41.09-5.87a89.18,89.18,0,0,0,14.83-18.23,186.57,186.57,0,0,0,12.2-22.87,212.41,212.41,0,0,0,9.27-24.56q3.87-12.53,6.34-23.33l32.13-134.73Q212,97.88,232.07,80T288.62,62Z" transform="translate(-1.92 -1.92)" style="fill: #fff"/>
  </g>
  <g>
    <path d="M502.61,112.5q0,8.5-5.5,13.5a18.66,18.66,0,0,1-13,5,19,19,0,0,1-13.25-5q-5.5-5-5.5-13.5,0-8.75,5.5-13.75a19,19,0,0,1,13.25-5,18.71,18.71,0,0,1,13,5Q502.6,103.76,502.61,112.5Zm-3.25,169H469.11V150.75h30.25Z" transform="translate(-1.92 -1.92)" style="fill: #fff"/>
    <path d="M591.11,87.5a81.05,81.05,0,0,1,18.5,1.88,103.54,103.54,0,0,1,12,3.37l-5.75,25A48.11,48.11,0,0,0,606,114.5a56,56,0,0,0-12.12-1.25,31.23,31.23,0,0,0-12.25,2.13,19.93,19.93,0,0,0-8,5.87,22.49,22.49,0,0,0-4.25,9.13A50.86,50.86,0,0,0,568.11,142v8.75h47.5V176h-47.5V281.5H537.86v-140q0-25.25,13.25-39.62T591.11,87.5Z" transform="translate(-1.92 -1.92)" style="fill: #fff"/>
    <path d="M681.35,258q17,0,24.75-5.75T713.85,236a21,21,0,0,0-2.62-10.75,27.5,27.5,0,0,0-7.5-8.13,62.93,62.93,0,0,0-11.88-6.74q-7-3.13-16-6.13-9-3.24-17.37-7.13a58.15,58.15,0,0,1-14.75-9.62,44.16,44.16,0,0,1-10.25-13.75q-3.88-8-3.88-19.25,0-23.49,16.25-36.88t44.25-13.37A104.69,104.69,0,0,1,719,107.88q12.62,3.62,19.87,7.87l-9.75,25.5A74.91,74.91,0,0,0,710.48,134a87.12,87.12,0,0,0-20.88-2.5q-12.75,0-19.87,5.25T662.6,151.5a19.43,19.43,0,0,0,2.38,9.88,24.36,24.36,0,0,0,6.75,7.37,58.55,58.55,0,0,0,10.25,6q5.87,2.76,12.87,5.25,12.25,4.5,21.88,9.12a62.37,62.37,0,0,1,16.25,11,43.24,43.24,0,0,1,10.12,15q3.51,8.64,3.5,20.88,0,23.5-16.62,36.38t-48.63,12.87a129.53,129.53,0,0,1-19.62-1.37A126.54,126.54,0,0,1,646,280.5a108.21,108.21,0,0,1-11.88-4.12,73.3,73.3,0,0,1-8-3.88l9.25-25.75a106.94,106.94,0,0,0,18.25,7.5Q665.11,258,681.35,258Z" transform="translate(-1.92 -1.92)" style="fill: #fff"/>
    <path d="M851,199.25q-5.75,22-12.37,42.87T825.5,281.5H800.67q-5-11.49-10.52-26.25t-11-31.5q-5.52-16.74-11-35.25t-10.77-37.75h32q2.26,10.5,5.28,22.63t6.28,24.74q3.27,12.63,6.78,24.63t7,22q3.75-11.49,7.39-23.75T829,196.5q3.25-12.24,6.14-23.88t5.14-21.87h23.25q2.24,10.26,5,21.87t5.86,23.88q3.12,12.25,6.74,24.5t7.36,23.75q3.25-10,6.78-22t6.91-24.63q3.39-12.62,6.41-24.74t5.27-22.63h31.26Q939.85,170,934.34,188.5t-11,35.25q-5.51,16.75-11,31.5T901.53,281.5H876.94q-6.5-18.5-13.36-39.38T851,199.25Z" transform="translate(-1.92 -1.92)" style="fill: #fff"/>
    <path d="M1001.6,112.5q0,8.5-5.5,13.5a18.66,18.66,0,0,1-13,5,19,19,0,0,1-13.25-5q-5.51-5-5.5-13.5,0-8.75,5.5-13.75a19,19,0,0,1,13.25-5,18.71,18.71,0,0,1,13,5Q1001.61,103.76,1001.6,112.5Zm-3.25,169H968.1V150.75h30.25Z" transform="translate(-1.92 -1.92)" style="fill: #fff"/>
    <path d="M1035.35,116.25l30.25-5v39.5h46.5V176h-46.5v53.25q0,15.75,5,22.5t17,6.75a55.23,55.23,0,0,0,14.62-1.75,97.32,97.32,0,0,0,10.13-3.25l5,24a113.38,113.38,0,0,1-13.75,4.62,74.56,74.56,0,0,1-20,2.38q-14,0-23.38-3.75a34.49,34.49,0,0,1-14.87-10.87,43.1,43.1,0,0,1-7.75-17.26,107,107,0,0,1-2.25-23.12Z" transform="translate(-1.92 -1.92)" style="fill: #fff"/>
    <path d="M1131.35,216.25a80.28,80.28,0,0,1,4.5-27.13,64.36,64.36,0,0,1,12.88-21.87,59,59,0,0,1,20.37-14.5,66.7,66.7,0,0,1,27-5.25,91.55,91.55,0,0,1,35,6.75L1224.6,179a68.8,68.8,0,0,0-11.87-3.75,63.91,63.91,0,0,0-14.13-1.5q-17.74,0-27,11.13t-9.25,31.37q0,19.5,8.75,30.87t29.5,11.38a77.54,77.54,0,0,0,15.25-1.5,71.74,71.74,0,0,0,13-3.75l4.25,25q-5,2.5-15.12,4.5a107.77,107.77,0,0,1-20.88,2q-16.75,0-29.12-5.13a55.15,55.15,0,0,1-20.5-14.24,59.14,59.14,0,0,1-12.13-21.76A90,90,0,0,1,1131.35,216.25Z" transform="translate(-1.92 -1.92)" style="fill: #fff"/>
    <path d="M1256.6,281.5V92.5l30.25-5v64.75a82.61,82.61,0,0,1,11.62-3A71,71,0,0,1,1311.6,148q15.75,0,26.12,4.38a41.15,41.15,0,0,1,16.63,12.24,47.91,47.91,0,0,1,8.87,18.88,105.72,105.72,0,0,1,2.63,24.5v73.5H1335.6V212.75a98.82,98.82,0,0,0-1.38-17.87,31.42,31.42,0,0,0-4.5-12,18,18,0,0,0-8.37-6.76,35,35,0,0,0-13-2.12,62.58,62.58,0,0,0-12.25,1.25,86.88,86.88,0,0,0-9.25,2.25v104Z" transform="translate(-1.92 -1.92)" style="fill: #fff"/>
  </g>
</svg>
