<?xml version="1.0" encoding="utf-8"?>
<svg width="1363.94" height="398.16" viewBox="0 0 1363.94 398.16" xmlns="http://www.w3.org/2000/svg">
  <circle cx="199.08" cy="199.08" r="199.08" style="fill: #5a4fcf"/>
  <g>
    <path d="M500.69,110.58q0,8.51-5.5,13.5a18.69,18.69,0,0,1-13,5,19,19,0,0,1-13.25-5q-5.51-5-5.5-13.5,0-8.74,5.5-13.75a19,19,0,0,1,13.25-5,18.69,18.69,0,0,1,13,5Q500.68,101.84,500.69,110.58Zm-3.25,169H467.19V148.83h30.25Z" style="fill: rgb(129, 128, 128);"/>
    <path d="M589.19,85.58a81,81,0,0,1,18.5,1.88,104.23,104.23,0,0,1,12,3.37l-5.75,25a47.68,47.68,0,0,0-9.86-3.25A55.49,55.49,0,0,0,592,111.33a31.29,31.29,0,0,0-12.25,2.13,19.92,19.92,0,0,0-8,5.87,22.45,22.45,0,0,0-4.25,9.13,51,51,0,0,0-1.27,11.62v8.75h47.5v25.25h-47.5v105.5H535.94v-140q0-25.25,13.25-39.62T589.19,85.58Z" style="fill: rgb(129, 128, 128);"/>
    <path d="M679.43,256.08q17,0,24.75-5.75t7.75-16.25a21,21,0,0,0-2.62-10.75,27.47,27.47,0,0,0-7.5-8.13,63,63,0,0,0-11.88-6.74q-7-3.14-16-6.13-9-3.24-17.37-7.13a58,58,0,0,1-14.75-9.62,44.27,44.27,0,0,1-10.25-13.75q-3.88-8-3.88-19.25,0-23.49,16.25-36.88t44.25-13.37a104.81,104.81,0,0,1,28.9,3.63q12.61,3.62,19.87,7.87l-9.75,25.5a74.74,74.74,0,0,0-18.64-7.25,87.38,87.38,0,0,0-20.88-2.5q-12.75,0-19.87,5.25t-7.13,14.75a19.34,19.34,0,0,0,2.38,9.88,24.26,24.26,0,0,0,6.75,7.37,58.74,58.74,0,0,0,10.25,6q5.87,2.76,12.87,5.25,12.26,4.5,21.88,9.12a62.5,62.5,0,0,1,16.25,11,43.3,43.3,0,0,1,10.12,15q3.51,8.64,3.5,20.88,0,23.5-16.62,36.38t-48.63,12.87A130.1,130.1,0,0,1,659.81,282a126.19,126.19,0,0,1-15.73-3.38,108.3,108.3,0,0,1-11.88-4.12,74.64,74.64,0,0,1-8-3.88l9.25-25.75a106.6,106.6,0,0,0,18.25,7.5Q663.19,256.08,679.43,256.08Z" style="fill: rgb(129, 128, 128);"/>
    <path d="M849.08,197.33q-5.75,22-12.37,42.87t-13.13,39.38H798.75q-5-11.49-10.52-26.25t-11-31.5q-5.52-16.74-11-35.25t-10.77-37.75h32q2.26,10.5,5.28,22.63T799,196.2q3.27,12.63,6.78,24.63t7,22q3.75-11.49,7.39-23.75t6.89-24.5q3.25-12.24,6.14-23.88t5.14-21.87h23.25q2.24,10.26,5,21.87t5.86,23.88q3.12,12.25,6.74,24.5t7.36,23.75q3.25-10,6.78-22t6.91-24.63q3.39-12.62,6.41-24.74t5.27-22.63H943.2q-5.26,19.24-10.78,37.75t-11,35.25q-5.5,16.75-11,31.5t-10.81,26.25H875q-6.49-18.49-13.36-39.38T849.08,197.33Z" style="fill: rgb(129, 128, 128);"/>
    <path d="M999.68,110.58q0,8.51-5.5,13.5a18.69,18.69,0,0,1-13,5,19,19,0,0,1-13.25-5q-5.5-5-5.5-13.5,0-8.74,5.5-13.75a19,19,0,0,1,13.25-5,18.69,18.69,0,0,1,13,5Q999.69,101.84,999.68,110.58Zm-3.25,169H966.18V148.83h30.25Z" style="fill: rgb(129, 128, 128);"/>
    <path d="M1033.43,114.33l30.25-5v39.5h46.5v25.25h-46.5v53.25q0,15.75,5,22.5t17,6.75a55.42,55.42,0,0,0,14.62-1.75,97.06,97.06,0,0,0,10.13-3.25l5,24a112.7,112.7,0,0,1-13.75,4.62,75,75,0,0,1-20,2.38q-14,0-23.38-3.75A34.54,34.54,0,0,1,1043.43,268a43,43,0,0,1-7.75-17.26,106.84,106.84,0,0,1-2.25-23.12Z" style="fill: rgb(129, 128, 128);"/>
    <path d="M1129.43,214.33a80.33,80.33,0,0,1,4.5-27.13,64.41,64.41,0,0,1,12.88-21.87,59,59,0,0,1,20.37-14.5,66.73,66.73,0,0,1,27-5.25,91.65,91.65,0,0,1,35,6.75l-6.5,24.75a68.75,68.75,0,0,0-11.87-3.75,64,64,0,0,0-14.13-1.5q-17.75,0-27,11.13t-9.25,31.37q0,19.5,8.75,30.87t29.5,11.38a78.07,78.07,0,0,0,15.25-1.5,71.81,71.81,0,0,0,13-3.75l4.25,25q-5,2.51-15.12,4.5a108.39,108.39,0,0,1-20.88,2q-16.76,0-29.12-5.13a55.24,55.24,0,0,1-20.5-14.24,59.16,59.16,0,0,1-12.13-21.76A90,90,0,0,1,1129.43,214.33Z" style="fill: rgb(129, 128, 128);"/>
    <path d="M1254.68,279.58v-189l30.25-5v64.75a83.28,83.28,0,0,1,11.62-3,71.39,71.39,0,0,1,13.13-1.25q15.75,0,26.12,4.38a41.12,41.12,0,0,1,16.63,12.24,47.84,47.84,0,0,1,8.87,18.88,105.75,105.75,0,0,1,2.63,24.5v73.5h-30.25V210.83A99,99,0,0,0,1332.3,193a31.39,31.39,0,0,0-4.5-12,18.08,18.08,0,0,0-8.37-6.76,35.11,35.11,0,0,0-13-2.12,62.25,62.25,0,0,0-12.25,1.25,86.55,86.55,0,0,0-9.25,2.25v104Z" style="fill: rgb(129, 128, 128);"/>
  </g>
  <path d="M96.51,291.28s-9.4-.11-19-.17c-5.23,0-9-4.72-7.74-9.54,8.86-32.82,38-140.86,45.06-167a8,8,0,0,1,7.8-5.75h42c5.26,0,9.11,4.72,7.8,9.56-13.69,50.56-26.27,98.85-40.1,149.72-5,17.21-12.51,23.14-36.1,23.2M153.76,87.05a39.45,39.45,0,0,1-22-6.41q-9.83-6.4-9.83-19.57a29.12,29.12,0,0,1,3.34-13.68A36.76,36.76,0,0,1,134.1,36.3a43.8,43.8,0,0,1,28.31-10.21,39.37,39.37,0,0,1,22,6.41q9.82,6.41,9.83,19.56a29.16,29.16,0,0,1-3.34,13.69,36.72,36.72,0,0,1-8.85,11.08,43.74,43.74,0,0,1-28.31,10.22ZM112.92,368.12c-12.88-4.57-17.51-8.78-28.09-15.55-3.34-2.13-5.17-6.83-4.39-12.83L88,323.35a8.11,8.11,0,0,1,8.3-4.53c37.65,4.26,58.24-11.85,67.22-47,2.33-9.13,6.48-25.1,13.24-50.24L195,151.33q9.82-36.71,35.39-56.8t72-20.09a128.58,128.58,0,0,1,30.87,3.29q6.44,1.62,11.32,3.1a7.54,7.54,0,0,1,4.88,10.49l-12.85,26.49a8.25,8.25,0,0,1-9.85,4,79.56,79.56,0,0,0-9.62-2.22A103.41,103.41,0,0,0,300,118.08q-21.63,0-32.05,9.7A50.27,50.27,0,0,0,253.55,152h0a7.76,7.76,0,0,0,7.83,9.42h48.34c5.35,0,9.2,4.85,7.75,9.74-2,6.63-4,13.39-5.93,20.15C307.92,203.29,303.86,208,286.4,208H244.9a8,8,0,0,0-7.8,5.79l-20.55,78c-11.24,42-43.82,69.38-84.58,76.68C127.19,369.37,117.49,369.74,112.92,368.12Z" style="fill: #fff"/>
</svg>